<svg xmlns="http://www.w3.org/2000/svg" xmlns:xlink="http://www.w3.org/1999/xlink" width="21.846" height="22.232" viewBox="0 0 21.846 22.232">
  <defs>
    <clipPath id="clip-path">
      <rect id="Rectangle_4" data-name="Rectangle 4" width="21.846" height="22.232" transform="translate(0 0)" fill="#ffffff"/>
    </clipPath>
  </defs>
  <g id="Group_8" data-name="Group 8" transform="translate(0 0)" clip-path="url(#clip-path)">
    <path id="Path_37" data-name="Path 37" d="M9.467,18.937a9.469,9.469,0,1,1,9.472-9.468,9.479,9.479,0,0,1-9.472,9.468M9.469,1a8.469,8.469,0,1,0,8.47,8.47A8.484,8.484,0,0,0,9.469,1" fill="#ffffff"/>
    <path id="Path_38" data-name="Path 38" d="M21.346,22.232a.5.5,0,0,1-.354-.146l-5.567-5.568a.5.5,0,0,1,.707-.707L21.7,21.378a.5.5,0,0,1-.354.854" fill="#ffffff"/>
  </g>
</svg>
