<svg xmlns="http://www.w3.org/2000/svg" width="74.958" height="74.93" viewBox="0 0 74.958 74.93">
  <g id="Group_59" data-name="Group 59" transform="translate(-642.445 -5365.588)">
    <path id="Path_29" data-name="Path 29" d="M37.223-58.893q-7.91,1.294-12.009,8.917a36.786,36.786,0,0,0-4.1,17.69q0,.863.072,1.654a9.9,9.9,0,0,0,.36,1.8H37.223V2.518H6.445V-26.39q0-17.114,7.191-30.562T37.223-72.412Z" transform="translate(636 5438)" fill="#eaeaea"/>
    <path id="Path_28" data-name="Path 28" d="M37.223-58.893q-7.91,1.294-12.009,8.917a36.786,36.786,0,0,0-4.1,17.69q0,.863.072,1.654a9.9,9.9,0,0,0,.36,1.8H37.223V2.518H6.445V-26.39q0-17.114,7.191-30.562T37.223-72.412Z" transform="translate(680.181 5438)" fill="#eaeaea"/>
  </g>
</svg>
