<svg width="20" height="20" viewBox="0 0 20 20" fill="none" xmlns="http://www.w3.org/2000/svg">
<path d="M6 16.8H5.2L5.68 16.16C6 15.72 6.2 15.16 6.32 14.48C4.32 13.56 3.2 11.84 3.2 9.6C3.2 6.16 5.8 4 10 4C14.2 4 16.8 6.16 16.8 9.6C16.8 13.12 14.24 15.2 10 15.2H9.72C9.08 15.96 7.96 16.8 6 16.8ZM10 4.8C6.24 4.8 4 6.6 4 9.6C4 12.16 5.56 13.36 6.88 13.88L7.16 14L7.12 14.32C7.04 14.96 6.92 15.52 6.68 16C8 15.84 8.76 15.16 9.2 14.6L9.32 14.44H10C15.4 14.44 16 11.08 16 9.64C16 6.6 13.76 4.8 10 4.8Z" fill="black"/>
</svg>
